<?xml version="1.0" encoding="UTF-8"?>
<svg id="Layer_1" data-name="Layer 1" xmlns="http://www.w3.org/2000/svg" viewBox="0 0 1046.83 739.11">
  <defs>
    <style>
      .cls-1 {
        fill: #fff;
      }
    </style>
  </defs>
  <path class="cls-1" d="M172,526.26c-.45-.75-.71-1.34-1.09-1.81-2.13-2.65-1.78-5.33-.23-8.1,2.05-3.67,4.96-6.61,7.84-9.59,1.42-1.47,2.92-2.9,4.13-4.54,4.33-5.82,8.48-11.79,12.87-17.56,2.26-2.97,4.72-5.84,7.42-8.4,2.38-2.26,3.56-4.7,2.4-7.74-.72-1.89-.28-3.33.82-4.58,5.34-6.12,11.08-11.87,18.4-15.55,3.4-1.71,5.57-3.98,6.98-7.42,1.64-4.04,3.55-7.97,5.49-11.88,1.38-2.77,1.75-5.37.44-8.34-.99-2.24-1.3-4.78-2.03-7.15-.42-1.38-.97-2.74-1.61-4.03-2.3-4.66-4.66-9.28-7-13.92-1.07-2.12-2.51-3.63-5.06-4.17-2.62-.55-5.12-1.64-7.31-2.37-2.53-2.92-4.7-5.69-7.15-8.19-3.03-3.1-7.07-4.93-10.17-8.08-1.47-1.49-4.09-1.85-6.22-2.67-3.68-1.41-7.29-3.14-11.09-4.07-4.76-1.17-6.63-4.55-7.99-8.61-.19-.58-.2-1.23-.22-1.85-.11-3.77-1.42-6.19-5.7-6.77-3.18-.43-4.77-3.09-5.2-6.24-.14-1.01-.02-2.06-.04-3.09-.08-2.99-.84-4.17-3.49-5.16-1.16-.43-2.36-.75-3.56-1.07-3.98-1.06-7.28-3-9.35-7.61.15-2.78.72-6.32.42-9.79-.29-3.43,1.24-5.82,2.75-8.59,2.14-3.93,5.03-7.45,6.53-11.76.9-2.59,1.48-5.19,1.4-7.92-.21-7.64-.21-15.3-.78-22.91-.26-3.42-1.58-6.79-2.63-10.11-.56-1.76-1.44-3.47-2.45-5.02-1.11-1.71-2.26-3.65-3.89-4.73-4.31-2.86-8.26-6.39-13.3-8.02-2.97-.97-4.32-2.92-4.46-6.01-.08-1.64-.65-3.26-.96-4.89-.4-2.12-1.42-3.88-2.96-5.37-1.34-1.3-2.73-2.57-3.95-3.97-3.17-3.64-7.32-4.74-11.81-4.16-2.41.31-4.46.32-6.43-1.14-2.13-1.59-4.32-1.93-7.02-1.19-3.93,1.08-5.99.28-7.51-3.41-1.31-3.2-3.63-4.4-6.49-5.13-2.2-.56-4.5-.75-6.74-1.11-3.73-3.76-4.93-6.2-5.74-11.06-.15-.91-.78-2.17-1.51-2.46-2.68-1.07-5.45-2-8.27-2.58-2.09-.43-4.08.51-5.84,1.74-1.71,1.19-3.63,1.12-5.36.37-3-1.3-5.88-2.89-8.67-4.28-1.66-2.57-2.06-5.26-1.21-7.93,1.06-3.33,1.34-6.52-.59-9.57-2.2-3.47-5.34-5.73-9.32-6.8-1-.27-2-.53-2.98-.86-2.71-.91-4.58-2.47-5.37-5.48-1.38-5.21-5.49-8.76-8.88-12.56-3.22-3.62-5.43-7.83-8.31-11.62-.47-.61-.76-1.51-.78-2.29-.26-7.47-1.71-14.88-.91-22.4.72-6.75,1.34-13.51,1.68-20.3.17-3.46.94-7,2.9-10.08,1.5-2.35,1.83-5,2.13-7.73.36-3.29.82-6.61,1.71-9.79,1.19-4.28,3.45-7.98,7.36-10.47,1.73-1.1,3.31-2.44,5.19-3.84,1.42.85,2.79,1.68,4.36,2.63.44,2.34,1.08,4.65,1.28,7.17.51,6.59,2.95,12.42,7.98,16.96.92.82,1.87,1.66,2.57,2.66,4.61,6.62,10.77,11.42,17.55,15.61,3.52,2.17,6.81,4.71,10.57,6.51,2.23,1.07,4.47,2.15,6.63,3.36,5.43,3.04,10.81,6.19,16.24,9.24,3.79,2.13,7.46,4.66,11.51,6.11,7.02,2.51,12.85,6.66,18.4,11.4.63.54,1.28,1.06,1.91,1.6,1.06.9,2.28.97,3.51.55.98-.33,1.95-.75,2.84-1.27,3.32-1.9,7-2.02,10.22-.6,5.29,2.34,10.92,2.49,16.4,3.42,8.8,1.48,17.66,2.65,26.54,3.54,5.36.54,10.79.3,16.2.39,1.66.03,3.33-.13,4.99-.01,7.99.55,15.69-1.41,23.44-2.8,3.67-.65,7.29-1.59,10.93-2.43,1.5-.35,1.85-1.48,1.78-3.07-5.76-1.29-11.59-2.53-17.38-3.9-8.87-2.11-17.71-4.36-26.18-7.78-5.38-2.18-10.72-4.49-15.95-7.01-4.68-2.25-8.77-5.42-12.77-8.75-2.2-1.83-4.62-3.36-5.9-5.98-.5-1.03-.48-2.32-.73-3.62,1.51-.78,2.71-1.81,4.06-2.04,5.09-.88,10.21-1.84,15.35-2.12,4.98-.27,9.89-.62,14.82-1.49,6.54-1.15,13.19-1.65,19.75-2.7,5.31-.84,10.51-2.14,15.13-5.21,2.93-1.94,6.11-2.69,9.19-.25,1.09.86,2.12,1.05,3.45.84,1.83-.29,3.76-.12,5.54-.57,4.71-1.19,9.46-1.15,14.25-1.06,3.11.06,6.23-.25,9.34-.13,3.93.15,7.84.64,11.77.86,8.7.49,17.36,1.28,25.88-1.89,4.43-1.65,9.22-2.33,13.88-3.35,6.49-1.41,13.04-1.99,19.71-1.74,4.99.18,9.95-.59,14.83-1.74,1.81-.42,3.66-.81,5.5-.96,4.35-.33,8.71-.56,13.07-.74,6.24-.26,12.46-.16,18.57,1.4.99.25,2.08.54,3.06.38,7.36-1.15,14.92-.55,22.16-2.78,3.3-1.02,6.65-.71,9.31,1.88,5.01,4.87,11.46,5.55,17.88,6.1,4.13.35,8.32.05,12.47.14,3.52.08,6.51-.77,8.69-3.82,1.28-1.79,3.14-2.43,5.44-2.38,4.35.09,8.71-.14,13.07-.23,3.25-.07,5.94.66,7.81,3.8,1.47,2.46,5.11,2.07,6.67-.49.86-1.41,1.41-3.01,2.18-4.48,1.99-3.77,4.01-4.62,8.12-3.43,1.19.34,2.37.76,3.51,1.25,3.84,1.66,7.71,3.13,12.02,2.41,6.17,1.51,12.55,2.19,18.26,5.41,3.77,2.12,7.76,3.88,11.78,5.5,4.09,1.65,7.74,4.02,11.31,6.48,2.91,2,4.31,4.86,3.48,8.61-.54,2.46-1.11,4.87-2.59,6.93-.58.81-1.32,1.76-2.18,2.05-3.82,1.29-6.08,4.31-8.14,7.38-4.05,6.03-8.28,12.01-11.6,18.44-4.65,9-8.66,18.27-10.25,28.54-1.26,8.16-3.77,16.13-5.79,24.17-1.42,5.66-2.74,11.31-1.66,17.2.46,2.5-.78,4.33-2.3,6.17-3.43,4.12-7.04,8.14-9.97,12.6-5.24,7.99-9.83,16.38-12.55,25.63-.7,2.37-1.09,4.84-1.61,7.26-.26.32-.46.79-.79.92-5.21,2.05-6.75,6.48-7.08,11.42-.44,6.57-3.04,12.34-5.59,18.26-2.48,5.76-6.12,10.8-8.93,16.34-.65,1.28-1.63,2.4-2.57,3.5-3.37,3.93-6.73,7.87-10.22,11.7-1.67,1.83-3.6,3.37-6.16,4.02-1.79.46-3.46,1.33-5.19,2.02-1.85-.67-2.45-2.03-2.66-3.83-.31-2.66-.87-5.29-1.21-7.95-.39-3.06-.54-5.94.68-9.08,1.71-4.42,1.99-9.19.65-13.99-.58-2.08-1.45-3.86-2.74-5.5-1.27-1.62-2.42-3.4-3.96-4.72-2.97-2.54-3.79-5.63-3.76-9.41.04-7.25-.99-14.42-2-21.61-.83-5.91-2.26-11.87-1.3-17.97.19-1.19.12-2.62-.37-3.69-1.85-4.02-.67-7.68.92-11.36.15-.35.08-.79.14-1.38-.43-.26-1-.49-1.43-.87-1.53-1.36-2.79-3.5-4.55-4.02-3.33-.99-6.91-1.25-10.42-1.47-8.89-.57-17.76-1.23-26.59-2.42-.41-.06-.85-.15-1.24-.08-6.42,1.19-12.77-.84-19.17-.37-1.22.09-2.53-.01-3.7-.35-3.48-1-6.89-.49-10.43-.36-8.25.32-16.51,1.73-24.82.39-1.5-.24-3.25.36-4.74.94-1.33.51-2.45,1.55-3.67,2.33-2.51,1.61-5.12,2.69-8.23,2.13-3.66-.67-6.84.07-9.79,2.66-2.14,1.88-4.81,3.2-7.4,4.48-1.64.81-3.53,1.48-5.32,1.51-4.34.07-8.75.11-12.99-.62-2.3-.39-4.45-1.93-6.94-2.36-6.06-1.04-11.94-.98-17.56,1.88-.37.19-.78.4-1.17.41-5.43.08-7.43,4.25-9.08,8.22-1.21,2.91-3.18,5.93-1.97,9.45-1.14,5.05-2.8,9.9-5.48,14.32.81,2.14,2.31,3.6,4,4.78,1.5,1.05,2.3,2.36,2.54,4.08.46,3.44,1.85,6.81.85,10.39-.72,2.58,1.58,3.57,2.83,5.02-.51,9.58,4.68,16.11,11.53,21.58,1.27,1.02,3.57,1.13,5.36,1.04,3.13-.16,5.69.46,7.74,3.01.74.92,1.95,1.49,3,2.12,11.78,7.11,22.81,15.18,32.76,24.73,3.86,3.71,7.98,7.14,12.01,10.67.76.67,1.66,1.18,2.73,1.92,4.09-4.42,9.04-3.74,13.94-2.42,10.44,2.81,20.53,6.62,30.12,11.65,1.65.86,3.19,1.95,4.75,2.97,1.57,1.02,3.01,2.29,4.68,3.07,3.08,1.43,5.63,3.46,7.96,5.9,1.42,1.49,3.06,2.82,4.73,4.03.96.7,2.16,1.26,3.32,1.46,7.8,1.36,15.19,4.06,22.56,6.81,2.09.78,4.27,1.95,5.78,3.54,2.62,2.73,5.86,4.09,9.3,4.35,5.44.41,9.95,2.83,14.28,5.65,12.06,7.85,24.73,14.49,38.22,19.47,6.68,2.47,12.6,6.35,18.84,9.62,1.96,1.03,2.94,2.71,3.18,5.01.53,5.06-1.3,9.87-5.21,13-1.62,1.29-3.21,2.62-4.78,3.97-4.48,3.85-7.14,11.85-5.43,16.77.45,1.31,1.29,2.57,2.19,3.64,3.79,4.46,8.72,7.52,13.56,10.68,3.61,2.36,4.62,5.17,2.46,8.75-1.16,1.91-2.08,3.85-1.43,5.8.77,2.3,1.84,4.97,3.65,6.35,3.73,2.85,4.98,6.31,5.02,10.75.02,3.25,2,5.93,3.9,8.34,3.28,4.17,3.64,9.08,4.17,13.96.07.63-1.3,2.09-1.86,2.02-4.63-.56-9.23-.74-13.47-3.61-6.87-4.66-14.49-7.98-22.54-10.25-7.99-2.25-15.82-4.99-23.32-8.59-.56-.27-1.13-.55-1.72-.71-7.38-1.99-14.75-4.03-22.17-5.88-2.81-.7-5.74-.89-8.6-1.38-9.86-1.69-19.8-2.59-29.78-2.3-3.9.11-7.8,1.13-11.65,1.96-15.02,3.21-28.78,9.4-41.55,17.88-2.42,1.61-4.97,3.03-7.41,4.62-3.04,2-6.55,2.56-9.96,3.41-.78.19-1.81.3-2.45-.05-3.69-2.04-6.4-.16-8.94,2.14-3.46,3.13-7.99,4.36-11.82,6.82-1.38.89-2.92,1.57-4.18,2.61-4.5,3.7-8.98,7.42-13.33,11.29-5.18,4.6-10.88,8.33-17.17,11.2-1.13.52-2.18,1.26-3.34,1.68-4.94,1.79-8.63,4.87-10.7,9.8-.48,1.14-1.25,2.15-1.96,3.18-1.24,1.81-2.9,2.9-5.18,2.98-6.75.21-11.01,3.94-14.16,9.63-2.63,4.74-6.16,8.83-10.98,11.55-12.97,7.3-24.33,16.62-34.33,27.59-2.09,2.29-3.91,4.88-5.49,7.55-3.79,6.42-7.76,12.79-10.89,19.53-2.52,5.43-4.27,11.29-5.67,17.12-1.04,4.33-2.66,8.24-5.03,11.79.52,4.47,1.26,8.78,1.46,13.12.15,3.08.18,6.4-.78,9.26-2.71,8.06-2.49,16.31-2.76,24.61-.14,4.32.59,8.24,2.17,12.11,1.19,2.9,2.63,5.63,5.48,7.36,1.64,1,3.13,2.52,2.54,4.58-.64,2.24-2.12,4.12-4.67,4.49-1.82.26-3.72.46-5.52.2-2.01-.29-3.91-1.23-5.9-1.73-7.27-1.83-11.48-6.79-14.59-13.32-5.37-11.27-6.6-23.48-8.51-35.52-.64-4.02-.43-8.29.15-12.34.67-4.67,0-9.11-.99-13.56-1.15-5.15-1.03-10.15.05-15.37,1.76-8.53,2.96-17.18,4.1-25.82,1.01-7.63,2.42-15.12,4.81-22.46,2.57-7.89,4.75-15.9,7.2-23.82.79-2.57,1.83-5.08,2.87-7.56,4.18-9.94,8.35-19.89,12.64-29.78,1.48-3.42,3.3-6.7,4.92-9.94Z"/>
  <path class="cls-1" d="M1005.86,732.2c2.22-3.39,4.16-6.3,6.05-9.25.32-.49.52-1.05.62-1.62.93-5.75,2.06-11.44,1.78-17.37-.33-7.04-.98-13.99-2.57-20.87-1.65-7.11-4.24-13.8-7.35-20.42-3.05-6.49-7.15-12.71-7.17-20.25-1.43-1.02-2.6-1.84-3.76-2.69-1.95-1.43-2.69-3.23-2.95-5.77-.68-6.68-4.31-11.88-9.39-16.15-3.81-3.2-7.52-6.54-11.31-9.77-5.51-4.69-11.18-9.17-16.95-13.54-2.13-1.61-3.94-3.64-5.95-5.4-4.86-4.26-10.2-7.84-15.74-11.15-3.03-1.81-6.07-3.61-8.91-5.69-1.25-.91-2.02-2.5-3.33-4.21-4.2.35-8.02-1.14-9.65-6.07-6.74-1.09-13.31-2.16-20.27-3.29-1.53-.25-2.88-1.13-3.73-2.42-1.17-1.79-2.47-3.77-3.68-5.79-.73-1.21-1.34-2.55-1.65-3.92-.28-1.24-1.06-1.66-2.02-2.06-.19-.08-.4-.14-.6-.16-8.51-.74-15.84-4.44-22.8-9.06-3.31,0-4.52-3.2-6.96-4.57-5.42-3.04-10.73-6.29-16.09-9.45-.09-.06-.19-.11-.28-.17-2.38-1.4-3.61-4.16-3.02-6.85.54-2.49,1.34-4.91,1.9-7.37.2-.89,1.49-1.62,2.03-2.28.69-.83,1.44-1.63,2.37-2.2,6.09-3.68,8.91-9.18,9.72-15.74.38-3.09.66-6.21.66-9.31,0-9.56.42-19.14-.91-28.66-.92-6.58-1.78-13.18-2.59-19.77-.65-5.33-1-10.71-1.85-16-.56-3.46-1.64-6.86-2.73-10.21-1.17-3.59-1.95-7.2-2.07-10.98-.1-2.91-.5-5.73-2.26-8.29-1.87-2.72-1.88-5.89-1.17-9.03.32-1.41.8-2.79,1.15-4.2.33-1.35-.17-2.43-1.2-3.31-.16-.13-.29-.31-.47-.41-6.14-3.42-7.57-9.05-6.94-15.42.3-3.06-.29-5.84-1.57-8.46-2.57-5.27-3.66-10.92-4.94-16.57-1.46-6.46-2.57-13.01-5.34-19.16-1.25-2.78-1.54-6-2.19-9.04-2.28-10.8-5.61-21.24-10.77-31.04-.18-.34-.58-.57-1.01-.97-2.56,2.74-4.32,5.98-5.64,9.42-2.9,7.55-5.65,15.15-8.56,23,.11.28.27.89.56,1.43,2.01,3.64,1.72,7.05-.57,10.55-1.47,2.24-2.42,4.82-3.59,7.24-.36.74-.55,1.63-1.07,2.23-6.5,7.61-8.32,17.08-10.23,26.41-1.91,9.35-3.24,18.81-4.92,28.86.35.41,1.16,1.31,1.92,2.26,1.76,2.22,1.97,3.53-.18,5.4-4.92,4.26-6.43,10.03-7.74,16-.38,1.73-.87,3.43-1.39,5.11-.53,1.7-.76,3.24.13,4.94,1.04,1.98.52,3.77-.59,5.8-2.99,5.5-5,11.33-5.33,17.73-.25,4.75-1.21,9.46-1.62,14.22-.74,8.69-1.4,17.4.46,26.05.37,1.72.19,3.23-.77,4.75-1.48,2.35-2.88,4.74-4.34,7.2-.9,1.53-.82,3.43.18,4.89.51.74.97,1.53,1.26,2.39.57,1.7.15,3.71.37,5.56.26,2.21.66,4.42,1.14,6.6,1.57,7.07,2.91,14.2,4.91,21.15,1.96,6.81,5.16,13.26,9.79,18.6,3.03,3.49,6.15,7.21,10.73,9.19,2.57,1.11,2.53,3.87-.02,5.26-3.25,1.77-6.72,3.13-10.17,4.7-5.44-2.16-10.63-4.22-15.82-6.28-5.58-2.22-11.17-4.41-16.73-6.67-3.46-1.4-6.89-2.88-10.32-4.35-8.2-3.51-16.26-7.41-25.3-8.38-3.16-.34-6.05-1.34-8.56-3.74-.24-1.03-.65-2.21-.79-3.43-.42-3.68-2.39-6.07-5.8-7.38-.58-.22-1.14-.51-1.69-.8-4.07-2.14-6.76-4.79-6.91-10.08-.12-4.46-1.73-9.02-4.74-12.62-2.5-2.99-3.71-6.39-4.56-10.09-1.34-5.9-4.26-7.96-10.16-7.6-1.86.11-3.72.26-5.58.22-.79-.02-1.57-.46-2.34-.7-.17-.36-.34-.71-.5-1.06-1.29-2.72-4.49-4.02-7.28-2.87-.34.14-.68.29-1.01.45-1.92.91-4.26.19-5.32-1.65-.36-.63-.6-1.34-.69-2.18-.09-.92-.92-1.77-1.4-2.66-.39-.72-1.18-1.55-1.05-2.17.86-4.19-1.16-8.18-.76-12.27.34-3.5,1.02-6.98,1.74-10.43.48-2.3.45-4.41-.33-6.7-2.15-6.26-4.1-12.58-6.01-18.92-2.99-9.92-5.35-20.02-7.15-30.22-1.59-8.99-4.08-17.81-5.8-26.78-1.23-6.41-2.83-12.74-4.88-18.93-.68-2.04-1.43-3.97-2.8-5.75-1.9-2.47-3.1-5.28-2.44-8.63.89-4.57-1.48-8.61-3.02-12.53-1.62-4.09-2.39-7.76-.98-11.93,1.47-4.35-.67-8.19-2.37-11.9-1.8-3.95-4.18-7.63-6.36-11.53.54-2.19.93-4.44,1.67-6.57,1.76-5.1-.24-9.13-3.95-12.18-4.96-4.07-5.14-9.19-3.2-16.07.84-2.98.91-6.08.53-9.16-.29-2.32.79-6.21-.2-9.15-1.14-3.39-.48-6.52.43-9.74,1.18-4.19,1.62-8.39,1.56-12.83-.1-6.68,1.86-13.11,5.19-18.98,1.53-2.69,3.19-5.33,5.01-7.82,1.74-2.38,2.61-4.92,1.21-7.55-1.52-2.86-.73-5.18.8-7.57,4.05-6.35,6.76-13.27,9.11-20.4,1.02-3.09,3.18-5.81,4.73-8.74,1.74-3.29,3.58-6.55,5.03-9.97,3.74-8.83,8.04-17.28,15.02-24.08,2.81-2.74,3.82-6.48,4.65-10.03,1.99-8.58,5.68-16.48,9.19-24.44,1.58-3.57,3.84-6.84,5.83-10.22,1.47-2.5,3.04-4.95,4.5-7.46,3.6-6.17,7.86-11.72,14.2-15.38,1.64-.95,2.8-2.31,3.51-4.42,1.51-4.5,4.62-8.36,9.02-10.14,3.37-1.37,5.83-3.68,8.15-6.16,5.25-5.59,11.69-9.24,18.83-11.77,3.17-1.13,6.4-1.95,9.75-.77h0c1.34.48,1.92,2.06,1.19,3.29-.92,1.55-1.79,3.02-2.53,4.57-1.07,2.24-1.91,4.6-2.75,6.95-.83,2.34-1.55,4.73-2.28,7.11-.73,2.38-1.2,4.87-2.17,7.14-1.33,3.09-1.94,6.3-2.61,9.56-.63,3.12-.65,6.19-.24,9.3.55,4.12,1.17,8.23,1.63,12.36.21,1.92.3,3.85.22,5.78-.18,4.65-.64,9.29-.77,13.93-.07,2.63.09,5.26.4,7.87.75,6.29,1.56,12.43.06,18.78-1.89,8-1.18,16.1.68,24.07.37,1.59,1,3.22,1.91,4.56,2.47,3.65,2.61,7.45.7,11.2-1.12,2.21-1.26,4.24-.82,6.58,1.52,8.16,2.65,16.41,5.41,24.27,1.51,4.3,3.34,8.48,5.17,12.65.38.87,1.42,1.45,2.12,2.2,2.55,2.72,5.15,5.41,7.6,8.22,1.39,1.59.94,2.97-1.16,3.81-2.48,1-5.01,1.91-7.55,2.74-6.69,2.19-12.25,5.99-16.18,11.84-1.95,2.9-3.28,6.2-5.03,9.24-.7,1.22-1.62,2.43-2.72,3.28-4.73,3.68-7.37,8.28-6.99,14.42.13,2.13-.58,4.05-1.7,5.89-1.92,3.13-2.14,6.28-1.37,10.06,2.06,10.18,3.44,20.49,5.05,30.76.19,1.22,0,2.5.16,3.73.53,3.92-.39,7.47-3.03,10.36-2.83,3.1-3.27,6.52-2.19,10.25.2.22.31.43.48.52,2.15,1.12,5.43.7,6.36,3.26.71,1.95-.13,4.42.05,6.63.13,1.6.46,3.36,1.28,4.69,4.11,6.66,9.59,12.02,16.51,15.68,3.37,1.78,7.23,2.03,10.96,1.12,4.23-1.04,7.36-5.28,7.41-9.69.02-1.65-.1-3.38-.61-4.94-1.39-4.27.34-7.22,3.64-9.63.83-.6,1.68-1.18,2.58-1.81.53-3.98,1.23-7.81.74-11.8-.23-1.82.13-3.73.33-5.59,1.02-9.52,3.64-18.72,5.84-27.99,1.33-5.63,3.65-11.03,5.33-16.59,1.98-6.55,3.82-13.14,5.55-19.76.63-2.4.8-4.91,1.16-7.26,3.44-3.71,8.75-.79,12.39-3.89.08-1.94-1.15-3.29-2.46-4.6-1.4-1.4-1.48-3.18-.4-4.52,1.55-1.92,1.96-4.01,2.15-6.32.08-1.01.41-2.04.78-2.99,3.18-8.1,6.42-16.17,9.58-24.28,1.58-4.04,3.95-8.05,4.32-12.22.45-5.15,3.61-9.18,4.52-13.8.31-1.55,1.56-2.75,3.13-2.95,3.29-.41,6.51-.14,8.8-3.13-1.41-3.26-1.13-6.22.97-9.7,4.34-7.2,9.98-13.29,15.61-19.29,5.59-5.95,11.86-11.4,19.17-15.38,3.27-1.78,6.75-1.32,10.2-1.19.44.02,1.09,1.19,1.17,1.89.08.74-.2,1.72-.68,2.29-5.14,6.14-6.02,14.01-8.59,21.18-.33.91-.2,2.06-.06,3.06,1.6,11.31,2.84,22.69,5.66,33.79,1.63,6.43,3.41,12.85,5.45,19.16,1.04,3.21,1.16,6.06-.72,8.9-.11.17-.19.37-.31.54-2.18,3.32-2.28,6.58.6,9.91-.58,2.75-1.26,5.57-1.75,8.42-.42,2.45-.66,4.92-.88,7.4-.07.8-.1,1.93.37,2.41,2.41,2.5,1.86,5.81,2.64,8.75,1.23,4.61,2.46,9.19,4.31,13.63,3.61,8.66,5.13,17.94,7.62,26.94,3.27,11.79,6.19,23.72,11.72,34.76.74,1.48,1.1,3.15,1.88,4.59,2.57,4.72,3.7,9.43,2.18,14.9-1,3.59-.04,7.16,2.33,10.55,2.33,3.34,4.08,7.28,5.24,11.21,2.15,7.27,6.04,13.66,9.35,20.35.91,1.84,2.42,2.05,4.33,1.51,1.99-3.68,2.23-7.84,2.81-12.16-1.48-1.21-3.03-2.48-4.31-3.53-.16-.62-.3-.84-.25-1.02,2.54-10.02,2.77-20.48,6.04-30.38,1.75-5.29,2.74-10.83,4.19-16.23.48-1.78,1.02-3.69,2.06-5.15,3.82-5.35,3.79-10.76.81-16.39-.09-.17-.07-.41-.16-1.07.45-.93,1.16-2.17,1.69-3.48,1.47-3.66,2.56-7.34,2.78-11.41.29-5.54.83-11.06,1.09-16.62.25-5.05.61-10.1,1.16-15.13,1.8-16.27,4.41-32.45,4.07-48.91-.17-8.49-1.79-16.46-6.46-23.63-1.21-1.85-1.89-3.7-1.51-5.85,1.11-6.41,1.09-12.97,2.43-19.35.2-.94.43-2.49.47-3.46.37-8.28.88-16.55,1.04-24.84.15-7.54,1.14-14.84,3.36-22.09,1.45-4.72,2.16-9.72,2.7-14.66.84-7.64,1.42-15.32,1.79-22.99.25-5.37.18-10.78-1.21-16.08-.48-1.81-.59-3.61-2.12-5.02-1.07-.99-.59-2.32.18-3.39,1.9-2.61,5.64-3.44,9-1.9,1.31.6,2.63,1.35,3.7,2.3,6.05,5.36,12.27,10.58,17.99,16.28,9.89,9.86,15.73,21.84,17.18,35.8.48,4.63,2.02,8.44,6.52,10.55,2.89,1.35,4.4,3.79,4.59,6.93.3,5.04,3.2,8.39,7,11.18,1.5,1.1,3.08,2.11,4.69,3.04,2.68,1.55,3.65,3.87,3.2,6.84-.18,1.23-.48,2.44-.77,3.64-.39,1.62-.9,3.21-1.22,4.84-.62,3.1.23,5.35,2.97,7.45,4.68,3.59,9.6,4.61,15.21,3.34,1.98-.45,4.2-1.32,5.98-.82,2.16.6,3.93,2.62,5.86,3.96.89.62,1.76,1.27,2.54,2.03,3.92,3.83,7.7,7.69,8.36,13.61.51,4.63,3.37,7.73,7.93,8.39,5.16.75,6.47,3.74,6.07,8.28-4.55,5.45-6.03,12.17-7.67,18.8-.4,1.6-.44,3.34-1.09,4.82-3.62,8.33-4.46,17.21-5.26,26.09-.2,2.26-.36,4.66.16,6.82.9,3.72.93,7.38.53,11.54-3.02,3.19-6.78,6.03-10.68,8.61-3.66,2.41-5.15,5.75-5.67,9.86-.35,2.72.28,4.92,2.65,6.48.69.46,1.37.95,2.07,1.39,1.91,1.21,2.91,3.02,3.01,5.19.14,3.1.31,6.25-.01,9.32-.86,8.3-1.3,16.55.13,24.84.86,4.99-.06,9.95-1.15,14.83-.63,2.82-1.62,5.55-2.44,8.31-1.46.64-2.8,1.16-4.07,1.81-4.46,2.3-5.86,6.21-5.55,10.93.08,1.24.21,2.56.73,3.66,1.81,3.88,1.04,7.74-.07,11.51-.9,3.06-.99,6.11-.99,9.24,0,5.72,2.75,10.24,5.82,14.75,3.96,5.82,5.67,12.22,4.43,18.88-2.04,1.44-3.53,2.52-5.05,3.56-.66.45-1.41,1.19-2.07,1.13-2.96-.24-5.06,1.51-7.43,2.78-2.55,1.37-5.25,2.48-7.88,3.71-.94.44-1.98.76-2.76,1.4-5.77,4.73-12.3,8.54-17.3,14.22-2.6,2.96-5.04,5.79-4.72,10.31.16,2.31-1.28,4.76-2.1,7.1-.78,2.2-.46,4.05,1.31,5.65.58.53,1.26,1.19,1.43,1.9,1.27,5.29,1.97,10.61.56,16.02-.73,2.81-1.09,5.74-2.02,8.47-.92,2.72-.09,4.74,1.42,6.89,3.72,5.31,8.19,9.88,13.27,13.85,1.19.93,2.06,1.85,2.59,3.3,5.04,13.76,13.24,25.9,20.85,38.24,1.83,2.96,3.38,6.08,4.66,9.32,1.6,4.07,3.29,8.11,2.81,12.45.94,1,1.71,1.86,2.48,2.66,3.5,3.65,6.42,7.82,8.72,12.32,3.15,6.16,6.02,12.42,8.62,18.8,3.68,9.03,7.59,18,9.05,27.75.52,3.48,1.06,7,1.12,10.52.15,9.14-.05,18.29.04,27.44.06,6.44-.04,12.92.68,19.3.88,7.9-.91,15.27-3.09,22.65-.77,2.59-1.84,5.09-2.63,7.67-2.75,8.99-8.67,15.58-16.39,20.38-4.2,2.61-9.13,3.66-14.17,1.25-2.48-1.18-4.01-2.82-4.45-5.56Z"/>
</svg>